<?xml version="1.0" standalone="no"?>
<!DOCTYPE svg PUBLIC "-//W3C//DTD SVG 20010904//EN"
 "http://www.w3.org/TR/2001/REC-SVG-20010904/DTD/svg10.dtd">
<svg version="1.0" xmlns="http://www.w3.org/2000/svg"
 width="736.000000pt" height="414.000000pt" viewBox="0 0 736.000000 414.000000"
 preserveAspectRatio="xMidYMid meet">

<g transform="translate(0.000000,414.000000) scale(0.100000,-0.100000)"
fill="#000000" stroke="none">
<path d="M0 2070 l0 -2070 1769 0 1769 0 16 48 c27 80 66 300 59 333 -7 37
-35 55 -250 168 -21 11 -22 12 -6 64 8 28 20 58 26 65 6 8 10 56 8 123 -1 60
0 109 4 109 17 0 85 -43 121 -77 50 -47 64 -73 98 -188 15 -49 29 -97 32 -105
7 -19 31 37 46 105 6 28 19 66 29 86 10 20 15 40 11 44 -4 5 0 6 10 2 11 -4
30 9 59 40 40 43 57 73 41 73 -11 0 -37 -44 -33 -55 1 -5 -8 -1 -20 10 -12 11
-19 15 -16 8 4 -6 1 -15 -6 -20 -8 -4 -22 -20 -31 -35 -24 -37 -54 -32 -110
19 -25 23 -46 39 -46 36 0 -4 -11 4 -25 17 -14 13 -25 27 -25 32 0 4 -15 29
-34 55 -18 27 -44 67 -57 90 -13 23 -49 77 -81 120 -69 96 -133 215 -142 266
-9 51 -26 37 -26 -21 0 -71 26 -158 71 -241 53 -95 33 -82 -34 22 -71 112 -77
127 -77 212 0 68 2 77 30 108 29 33 29 37 24 108 l-6 74 40 -41 c22 -23 61
-56 86 -75 25 -18 46 -38 46 -45 0 -14 96 -114 109 -114 4 0 13 -11 19 -25 6
-14 20 -25 29 -25 12 0 24 -15 36 -43 9 -23 29 -51 43 -62 15 -11 48 -42 74
-69 27 -27 70 -60 97 -72 26 -13 42 -24 34 -24 -10 0 -7 -8 9 -25 13 -14 29
-25 36 -25 17 0 46 -63 42 -91 -2 -18 3 -23 27 -26 16 -2 37 -10 46 -16 8 -7
2 0 -13 14 -28 25 -28 26 -8 44 11 10 17 22 13 28 -3 6 -1 7 6 3 7 -5 36 14
74 46 34 30 87 71 117 93 30 22 88 66 128 100 105 86 114 93 142 100 l25 6
-28 -25 c-15 -14 -28 -29 -29 -33 0 -5 -11 -15 -24 -23 -12 -8 -83 -61 -158
-118 -129 -99 -134 -104 -131 -135 11 -86 13 -207 4 -207 -5 0 -4 -9 3 -19 9
-15 9 -23 -2 -36 -11 -13 -11 -18 -2 -24 8 -4 13 -34 14 -72 l2 -64 -40 -7
c-76 -13 -228 -75 -246 -99 -14 -21 -15 -39 -8 -154 5 -71 9 -176 10 -232 l0
-103 598 0 597 0 28 40 c16 23 33 37 39 34 6 -4 8 -3 5 2 -8 14 5 31 27 36 14
2 26 -11 49 -54 l30 -58 1084 0 1083 0 0 828 0 827 -162 0 -163 0 -77 35 c-64
28 -78 38 -78 57 0 31 44 110 80 144 17 17 30 39 30 54 0 13 6 42 14 62 8 21
22 63 30 93 21 77 56 108 117 102 9 -1 21 -13 27 -27 30 -66 3 -130 -98 -230
-33 -33 -60 -67 -60 -76 0 -11 27 -26 88 -49 48 -18 110 -41 137 -51 28 -10
65 -22 83 -25 l32 -6 0 1201 0 1201 -3680 0 -3680 0 0 -2070z m3250 1508 c19
1 58 2 87 4 28 2 49 0 47 -4 -3 -5 10 -8 28 -8 18 0 49 -5 68 -10 37 -11 132
-14 190 -7 19 3 64 1 100 -4 52 -6 69 -13 85 -34 12 -14 26 -25 33 -25 7 0 10
-4 7 -10 -3 -5 -16 -10 -28 -10 -15 0 -18 -3 -10 -11 6 -6 9 -18 6 -25 -4 -11
2 -13 24 -8 25 5 29 2 30 -18 1 -13 5 -34 8 -48 4 -16 2 -20 -3 -12 -7 10 -11
10 -21 -2 -7 -8 -8 -17 -3 -20 17 -10 6 -51 -14 -52 -45 -2 -47 -3 -35 -18 9
-11 6 -18 -16 -35 -25 -18 -26 -20 -8 -21 13 0 16 -3 8 -8 -6 -4 -13 -23 -15
-42 -2 -27 -7 -34 -20 -32 -11 2 -18 -3 -18 -13 0 -8 5 -15 10 -15 6 0 10 -5
10 -11 0 -8 -5 -8 -15 1 -12 10 -16 8 -25 -14 -5 -15 -18 -30 -27 -33 -23 -9
-117 -75 -121 -86 -2 -4 -10 -13 -17 -21 -8 -8 -13 -35 -13 -67 0 -30 -3 -83
-7 -119 -10 -83 -10 -250 0 -318 6 -44 5 -56 -10 -72 -22 -25 -32 -25 -102 0
-56 19 -58 19 -76 2 -17 -18 -17 -19 10 -49 30 -33 60 -48 65 -33 4 13 73 -6
91 -25 8 -7 23 -12 34 -9 23 6 92 -35 93 -54 0 -7 -5 -10 -11 -7 -11 8 -45
-23 -45 -40 1 -5 -11 -11 -26 -13 -21 -2 -26 0 -23 11 4 10 -3 14 -25 14 -26
0 -31 -4 -27 -19 5 -17 -1 -18 -54 -17 -33 1 -62 6 -65 10 -3 5 -21 2 -41 -6
-19 -8 -53 -15 -75 -15 -55 0 -76 -13 -71 -45 5 -24 8 -25 58 -19 34 4 60 2
76 -6 30 -17 49 -35 49 -49 0 -14 37 -51 50 -51 6 0 10 -4 10 -9 0 -4 15 -11
33 -15 176 -35 161 -29 167 -67 8 -46 17 -59 41 -59 18 0 24 -15 20 -47 -1 -7
3 -13 9 -13 5 0 10 -11 10 -25 0 -18 -5 -25 -20 -25 -11 0 -19 -3 -19 -7 1 -5
1 -16 0 -27 -1 -16 -3 -17 -18 -5 -11 10 -14 10 -9 2 5 -9 -2 -13 -26 -14 -18
0 -42 -4 -53 -8 -11 -5 -28 -4 -39 1 -13 7 -21 6 -26 -2 -4 -7 -13 -10 -19 -6
-6 4 -20 2 -31 -4 -16 -9 -25 -8 -37 2 -13 10 -17 10 -20 1 -6 -18 -23 -16
-23 2 0 8 -4 15 -10 15 -5 0 -10 -5 -10 -11 0 -6 -7 -4 -15 5 -8 8 -15 19 -15
25 0 6 -9 11 -19 11 -11 0 -26 9 -34 20 -8 11 -17 17 -20 13 -4 -3 -7 -1 -7 6
0 7 -6 11 -13 8 -15 -5 -71 36 -62 45 14 14 -53 28 -95 20 -25 -4 -91 -4 -147
2 -87 8 -114 7 -182 -9 -64 -14 -97 -16 -173 -10 -51 4 -118 7 -148 7 -63 -2
-190 17 -205 30 -5 4 -22 8 -38 8 -28 0 -29 2 -22 33 5 17 7 71 6 119 -1 65 3
96 15 120 30 59 44 65 172 72 65 4 125 4 134 1 24 -9 35 18 42 100 3 39 10
113 15 165 6 52 11 107 11 121 0 37 -32 65 -82 73 -47 7 -186 53 -204 68 -21
16 -86 19 -103 5 -28 -23 -102 -51 -109 -41 -4 5 -20 29 -35 52 -15 24 -33 41
-40 39 -7 -2 -37 9 -68 25 -37 19 -65 27 -80 23 -29 -7 -57 28 -40 49 6 7 9
15 6 17 -2 3 55 4 128 4 73 -1 143 2 156 7 15 5 46 4 80 -3 83 -17 115 -13
196 26 40 19 77 35 81 35 4 0 25 12 45 26 29 20 42 23 56 16 33 -18 70 -66
104 -132 47 -94 68 -121 105 -136 18 -8 41 -24 50 -37 18 -23 18 -23 37 -4 19
19 19 20 -12 86 -17 37 -31 77 -31 89 0 22 0 22 39 -4 34 -22 40 -32 43 -67
l3 -42 14 59 c10 45 11 101 6 227 -7 162 -4 194 25 264 4 11 13 40 19 65 7 25
26 89 43 143 27 85 35 98 57 104 14 3 35 12 46 20 13 9 33 11 60 7 22 -3 56
-6 75 -6z m-1612 -38 c14 -47 16 -109 2 -130 -15 -24 -24 14 -16 74 4 41 2 57
-9 66 -18 15 -19 30 -2 30 6 0 18 -18 25 -40z m2255 -751 c7 -1 -1 -4 -16 -8
l-28 -6 21 -23 c17 -18 19 -26 10 -37 -13 -16 -33 -10 -27 8 4 14 -10 30 -38
41 -18 8 -18 9 10 22 17 7 36 11 43 9 8 -3 19 -6 25 -6z m138 -97 c-7 -2 -18
1 -23 6 -8 8 -4 9 13 5 13 -4 18 -8 10 -11z m24 -22 c3 -5 -1 -10 -10 -10 -9
0 -13 5 -10 10 3 6 8 10 10 10 2 0 7 -4 10 -10z m-31 -16 c9 -23 2 -28 -31
-19 -27 6 -27 7 -9 21 25 18 32 18 40 -2z m-47 -40 c-3 -3 -12 -4 -19 -1 -8 3
-5 6 6 6 11 1 17 -2 13 -5z m163 2 c0 -11 -19 -15 -25 -6 -3 5 1 10 9 10 9 0
16 -2 16 -4z m27 -18 c-3 -8 -6 -5 -6 6 -1 11 2 17 5 13 3 -3 4 -12 1 -19z
m-137 -43 c0 -8 -4 -15 -10 -15 -5 0 -10 7 -10 15 0 8 5 15 10 15 6 0 10 -7
10 -15z m1520 -230 c87 -45 93 -101 27 -254 -40 -95 -48 -106 -88 -130 -56
-32 -68 -48 -69 -87 0 -60 -74 -94 -104 -49 -14 21 -14 28 -1 66 9 23 17 59
19 78 2 20 7 45 12 55 5 13 0 42 -14 80 -26 73 -28 116 -6 159 48 92 140 126
224 82z m1000 -39 c-1 -30 -47 -111 -92 -160 -10 -11 -36 -56 -58 -100 -44
-87 -76 -124 -93 -107 -12 12 9 61 68 159 15 24 28 53 29 65 1 12 8 32 14 44
7 12 12 29 12 37 0 27 42 98 64 106 26 10 56 -14 56 -44z m-4432 -194 c24 -16
31 -35 36 -97 6 -85 -28 -117 -82 -79 -49 34 -69 135 -36 182 17 24 38 23 82
-6z m-1354 -57 c3 -9 6 -31 6 -48 1 -18 7 -59 15 -92 8 -33 15 -83 15 -112 0
-28 4 -54 9 -58 19 -11 41 -69 41 -107 0 -42 -11 -47 -69 -27 -38 13 -81 4
-81 -16 0 -24 -98 -51 -101 -27 -9 67 -7 102 7 134 16 36 16 40 -4 91 -23 61
-19 106 18 192 36 84 44 97 65 105 24 9 70 -12 79 -35z m2761 -35 c16 -7 11
-9 -22 -9 -23 -1 -45 4 -48 9 -8 12 42 12 70 0z m114 -5 c-11 -11 -78 -15 -84
-5 -4 6 11 10 41 10 26 0 45 -2 43 -5z m108 -139 c4 -3 -10 -6 -30 -6 -20 0
-39 5 -43 11 -7 11 61 7 73 -5z m1508 -26 c3 -5 -1 -10 -10 -10 -9 0 -13 5
-10 10 3 6 8 10 10 10 2 0 7 -4 10 -10z m-2085 -585 c0 -5 -5 -3 -10 5 -5 8
-10 20 -10 25 0 6 5 3 10 -5 5 -8 10 -19 10 -25z m-2555 -55 c3 -6 -5 -10 -18
-10 -14 0 -28 -7 -31 -16 -9 -24 -19 -10 -11 15 7 22 49 30 60 11z m2623 -119
l-1 -36 -4 38 c-3 21 -13 53 -24 70 -10 18 -19 37 -19 42 0 6 11 -10 25 -34
16 -27 24 -56 23 -80z m142 -114 c0 -2 -21 -35 -46 -73 -25 -38 -60 -96 -77
-129 -16 -33 -32 -55 -34 -48 -2 6 7 67 21 134 15 68 26 134 26 146 0 13 7 41
16 63 l16 40 39 -64 c21 -36 39 -67 39 -69z m-153 -24 c-3 -10 -5 -2 -5 17 0
19 2 27 5 18 2 -10 2 -26 0 -35z m-10 -110 c-3 -10 -5 -4 -5 12 0 17 2 24 5
18 2 -7 2 -21 0 -30z m573 13 c0 -2 -8 -10 -17 -17 -16 -13 -17 -12 -4 4 13
16 21 21 21 13z m-930 -73 c0 -27 -3 -34 -11 -26 -7 7 -9 23 -5 37 9 37 16 32
16 -11z m856 -20 c-7 -7 -26 7 -26 19 0 6 6 6 15 -2 9 -7 13 -15 11 -17z
m-975 -156 c-1 -12 -15 -9 -19 4 -3 6 1 10 8 8 6 -3 11 -8 11 -12z m329 -67
c0 -5 -2 -10 -4 -10 -3 0 -8 5 -11 10 -3 6 -1 10 4 10 6 0 11 -4 11 -10z m777
-172 c-3 -7 -5 -2 -5 12 0 14 2 19 5 13 2 -7 2 -19 0 -25z m-1461 -115 c-11
-11 -19 6 -11 24 8 17 8 17 12 0 3 -10 2 -21 -1 -24z m1461 -75 c-2 -13 -4 -5
-4 17 -1 22 1 32 4 23 2 -10 2 -28 0 -40z m-1969 25 c5 -17 -26 -29 -40 -15
-6 6 -7 15 -3 22 9 14 37 9 43 -7z m1252 -97 c-16 -16 -22 0 -14 36 l7 33 8
-30 c5 -17 5 -33 -1 -39z m1147 -28 c-3 -7 -5 -2 -5 12 0 14 2 19 5 13 2 -7 2
-19 0 -25z m983 -10 c0 -13 -23 -5 -28 10 -2 7 2 10 12 6 9 -3 16 -11 16 -16z
m-3475 -9 c10 -15 -1 -23 -20 -15 -9 3 -13 10 -10 16 8 13 22 13 30 -1z"/>
<path d="M2931 3084 c0 -11 3 -14 6 -6 3 7 2 16 -1 19 -3 4 -6 -2 -5 -13z"/>
<path d="M3210 3010 c-8 -5 -43 -10 -78 -10 -67 0 -100 -14 -139 -59 -12 -15
-22 -38 -23 -53 0 -28 13 -37 25 -18 3 6 15 10 25 10 10 0 25 6 32 14 15 15
118 28 118 15 0 -5 -9 -9 -19 -9 -11 0 -22 -4 -25 -9 -3 -5 -18 -12 -32 -15
-15 -4 -33 -14 -42 -22 -9 -10 -24 -13 -39 -9 -21 5 -23 3 -17 -22 13 -60 26
-84 44 -78 9 3 23 -1 30 -10 7 -8 18 -15 24 -15 7 0 6 3 -2 9 -7 4 30 8 85 7
54 0 89 -2 78 -4 -11 -2 -24 -8 -29 -12 -5 -5 2 -7 15 -4 24 5 24 5 4 -12 -20
-16 -20 -16 5 -10 14 3 32 6 41 6 9 0 27 11 40 25 13 13 32 25 42 25 9 0 25 9
34 19 9 11 22 17 29 14 9 -3 15 8 20 36 4 22 13 46 20 52 28 23 9 69 -28 69
-10 0 -18 4 -18 9 0 14 -59 41 -76 34 -7 -3 -14 -1 -14 4 0 5 -23 15 -51 21
-60 14 -60 14 -79 2z"/>
<path d="M3570 2940 c0 -5 7 -7 15 -4 8 4 15 8 15 10 0 2 -7 4 -15 4 -8 0 -15
-4 -15 -10z"/>
<path d="M2879 2553 c-4 -47 1 -75 17 -109 24 -50 29 -27 14 58 -11 63 -28 91
-31 51z"/>
<path d="M3230 1869 c0 -5 5 -7 10 -4 6 3 10 8 10 11 0 2 -4 4 -10 4 -5 0 -10
-5 -10 -11z"/>
<path d="M3615 1840 c-3 -5 1 -10 9 -10 9 0 16 5 16 10 0 6 -4 10 -9 10 -6 0
-13 -4 -16 -10z"/>
<path d="M3580 1630 c0 -5 5 -10 11 -10 5 0 7 5 4 10 -3 6 -8 10 -11 10 -2 0
-4 -4 -4 -10z"/>
<path d="M3847 917 c2 -12 5 -28 5 -34 2 -18 9 -16 41 12 30 27 32 31 15 33
-7 1 -25 3 -40 6 -23 3 -26 1 -21 -17z m29 4 c-4 -5 -1 -11 6 -13 7 -3 5 -7
-6 -11 -10 -4 -15 -3 -11 3 3 6 1 10 -5 10 -6 0 -8 5 -5 10 3 6 11 10 16 10 6
0 8 -4 5 -9z"/>
<path d="M4063 700 c-30 -12 -29 -18 2 -12 14 2 25 8 25 13 0 5 -1 9 -2 8 -2
0 -13 -4 -25 -9z"/>
</g>
</svg>
