<?xml version="1.0" standalone="no"?>
<!DOCTYPE svg PUBLIC "-//W3C//DTD SVG 20010904//EN"
 "http://www.w3.org/TR/2001/REC-SVG-20010904/DTD/svg10.dtd">
<svg version="1.0" xmlns="http://www.w3.org/2000/svg"
 width="459.000000pt" height="499.000000pt" viewBox="0 0 459.000000 499.000000"
 preserveAspectRatio="xMidYMid meet">

<g transform="translate(0.000000,499.000000) scale(0.100000,-0.100000)"
fill="#000000" stroke="none">
<path d="M3590 3380 c0 -5 -6 -7 -14 -4 -16 6 -157 -62 -169 -82 -4 -8 -15
-14 -24 -14 -10 0 -13 -6 -9 -16 5 -13 3 -14 -6 -7 -9 8 -23 5 -48 -8 -19 -11
-31 -19 -26 -19 5 0 -1 -11 -13 -24 -12 -13 -23 -30 -25 -37 -1 -8 -6 -21 -11
-29 -6 -11 -3 -10 12 3 11 9 26 17 34 18 8 0 6 4 -6 9 -19 8 -19 9 -1 9 10 1
27 11 37 23 16 17 19 18 19 5 0 -10 -4 -17 -9 -17 -12 0 -23 -29 -15 -41 3 -6
16 -3 31 7 25 16 26 16 19 -2 -5 -15 -4 -16 5 -7 21 21 0 34 -27 17 -26 -18
-34 -4 -9 16 8 7 15 19 15 27 0 9 10 3 25 -14 14 -15 24 -21 23 -13 -2 8 3 14
10 13 14 -3 16 13 2 22 -6 3 -13 -1 -16 -10 -6 -13 -8 -14 -15 -3 -5 7 -9 18
-9 23 0 6 4 4 9 -4 7 -11 10 -10 18 4 9 16 10 16 16 0 4 -9 12 -13 18 -9 8 5
9 3 4 -6 -6 -10 -4 -12 9 -7 10 4 20 7 22 7 3 0 2 5 -2 12 -4 6 -3 8 3 5 13
-8 83 14 83 25 0 5 4 7 9 3 5 -3 12 -1 16 4 14 23 35 -2 35 -43 1 -38 2 -40
15 -22 15 19 15 19 16 -5 1 -23 1 -23 7 -2 5 17 11 20 22 13 22 -14 30 -12 30
8 0 14 2 15 10 2 7 -11 10 5 10 53 l0 67 -61 0 -61 0 7 30 c4 19 3 30 -4 30
-6 0 -11 -4 -11 -10z m-280 -175 c-7 -8 -17 -15 -22 -15 -6 0 -5 7 2 15 7 8
17 15 22 15 6 0 5 -7 -2 -15z"/>
<path d="M1553 3343 c-20 -8 -15 -26 5 -18 14 5 15 4 5 -6 -7 -7 -13 -21 -13
-32 0 -20 24 -19 26 1 1 7 2 18 3 25 1 8 4 7 11 -3 8 -13 11 -13 22 -1 7 8 8
11 2 8 -13 -8 -37 16 -27 26 7 8 -16 8 -34 0z"/>
<path d="M20 3318 c1 -15 25 -50 31 -44 2 3 3 -21 1 -52 -2 -31 1 -68 7 -82 5
-14 10 -18 10 -9 1 12 9 14 32 11 21 -3 30 -1 25 6 -7 11 12 11 32 -1 9 -6 12
3 12 37 l0 46 119 0 c66 0 122 -4 126 -9 3 -5 -4 -16 -16 -25 -20 -14 -18 -43
2 -30 5 3 7 9 4 14 -3 5 4 15 15 23 11 7 17 17 12 22 -4 4 2 5 12 1 12 -4 23
-2 28 6 5 8 7 4 4 -12 -3 -21 0 -26 18 -27 11 0 15 1 8 4 -8 3 -10 9 -3 16 5
7 12 33 16 58 l7 46 -78 6 c-141 12 -424 8 -424 -5z m472 -100 c-8 -8 -9 -4
-5 13 4 13 8 18 11 10 2 -7 -1 -18 -6 -23z"/>
<path d="M1483 3305 c-23 -12 -45 -20 -50 -17 -4 4 1 -3 11 -15 17 -20 43 -23
31 -4 -2 5 8 6 23 2 25 -5 25 -6 4 -9 -12 -2 -20 -7 -17 -12 3 -5 13 -6 23 -3
15 5 14 3 -3 -18 -11 -13 -13 -18 -4 -11 9 6 20 8 24 4 5 -4 5 -1 1 6 -4 6 -3
12 1 12 9 0 11 75 3 84 -3 3 -24 -6 -47 -19z m34 -11 c-3 -3 -12 -4 -19 -1 -8
3 -5 6 6 6 11 1 17 -2 13 -5z"/>
<path d="M2406 3295 c7 -19 14 -43 14 -54 0 -11 5 -32 12 -46 l12 -26 13 23
c7 13 12 17 13 9 0 -8 6 -11 15 -7 12 4 13 2 6 -13 -11 -19 -4 -34 10 -25 4 2
5 12 2 21 -4 10 -2 14 4 10 6 -4 9 3 7 18 -1 14 2 23 7 19 5 -3 7 -10 4 -15
-4 -5 2 -6 12 -2 16 6 17 5 3 -13 -9 -12 -9 -15 -1 -7 18 15 45 5 31 -12 -7
-8 -5 -12 5 -12 8 0 12 4 9 9 -6 10 10 11 20 1 11 -11 46 -14 46 -3 0 6 -3 9
-7 9 -5 -1 -11 0 -15 1 -5 1 -11 3 -15 4 -42 10 -53 18 -43 31 13 16 4 39 -11
29 -6 -3 -8 -13 -4 -22 5 -13 2 -12 -15 3 -24 22 -25 26 -5 19 24 -10 17 12
-9 25 -13 8 -30 10 -38 6 -7 -5 -10 -5 -6 0 6 6 -70 55 -86 55 -3 0 2 -16 10
-35z"/>
<path d="M3015 3316 c-11 -6 -22 -14 -25 -17 -3 -3 -12 -5 -20 -4 -9 2 -16 -5
-17 -14 -1 -9 -2 -33 -4 -53 -1 -22 -6 -35 -12 -31 -6 3 -7 1 -3 -6 10 -15 29
-3 22 15 -3 8 -1 14 4 14 6 0 10 -10 11 -22 0 -22 1 -22 9 -3 6 13 9 15 9 5 1
-13 3 -13 10 -1 7 11 10 9 14 -10 2 -13 5 2 6 34 0 32 6 67 12 79 13 25 9 29
-16 14z"/>
<path d="M1920 3303 c0 -10 -5 -25 -10 -33 -8 -13 -11 -13 -22 3 -12 16 -13
15 -13 -7 0 -17 4 -22 15 -18 13 5 13 3 2 -11 -12 -14 -11 -19 3 -33 10 -10
19 -13 23 -7 4 5 15 13 26 16 11 5 16 13 12 23 -3 8 1 28 9 44 20 39 20 40
-15 40 -22 0 -30 -5 -30 -17z m20 -59 c0 -8 -19 -13 -24 -6 -3 5 1 9 9 9 8 0
15 -2 15 -3z"/>
<path d="M3908 3312 c-26 -3 -28 -7 -28 -50 0 -26 4 -51 8 -57 10 -14 32 -17
32 -4 0 8 4 8 14 0 21 -17 38 19 34 71 -3 43 -9 47 -60 40z"/>
<path d="M4282 3294 c-12 -14 -25 -37 -28 -50 -4 -14 -11 -21 -18 -17 -6 3 -6
1 2 -8 6 -7 12 -19 12 -27 0 -9 -7 -6 -18 8 -15 19 -20 20 -24 8 -4 -8 -2 -21
4 -29 8 -11 9 -10 4 4 -8 25 9 21 22 -5 6 -13 11 -17 11 -10 1 7 6 10 11 7 6
-3 10 -1 10 5 0 5 16 18 35 27 19 9 35 23 35 30 0 8 5 11 10 8 6 -3 10 1 10 9
0 9 5 16 11 16 5 0 7 5 3 12 -4 6 -3 8 3 5 6 -4 16 -1 22 7 9 11 7 15 -11 20
-48 12 -83 6 -106 -20z m-15 -86 c2 -17 0 -19 -7 -8 -5 8 -6 18 -4 22 8 12 10
10 11 -14z"/>
<path d="M682 3297 c10 -8 13 -19 9 -27 -4 -8 -7 -21 -5 -27 1 -7 2 -39 3 -70
2 -51 4 -55 13 -33 9 21 12 22 15 8 3 -10 7 -18 10 -18 3 0 12 8 20 18 9 10
12 11 7 2 -5 -11 -4 -12 5 -4 6 6 15 30 19 55 l8 44 134 5 135 5 3 28 3 27
-198 0 c-161 -1 -195 -3 -181 -13z"/>
<path d="M1370 3243 c-20 -8 -40 -36 -32 -47 3 -5 -2 -6 -13 -2 -14 5 -16 4
-7 -7 12 -14 7 -27 -10 -27 -5 0 -6 5 -2 12 5 7 3 8 -5 3 -10 -5 -10 -10 -1
-19 9 -8 16 -5 29 11 10 12 21 19 25 16 3 -3 1 -12 -6 -20 -8 -11 -7 -12 6 -7
19 7 19 9 5 36 -8 14 -8 18 0 14 13 -8 51 11 51 26 0 7 -5 6 -15 -2 -13 -11
-14 -10 -9 4 7 17 6 17 -16 9z"/>
<path d="M2871 3237 c-6 -8 -8 -17 -4 -20 3 -4 0 -7 -8 -7 -8 0 -27 -15 -44
-32 -16 -18 -22 -26 -12 -18 16 12 20 12 28 -1 8 -12 10 -12 8 1 -3 29 1 39
14 35 6 -3 20 8 29 25 17 30 10 41 -11 17z"/>
<path d="M1400 3200 c0 -5 5 -10 10 -10 6 0 10 5 10 10 0 6 -4 10 -10 10 -5 0
-10 -4 -10 -10z"/>
<path d="M1381 3184 c0 -11 3 -14 6 -6 3 7 2 16 -1 19 -3 4 -6 -2 -5 -13z"/>
<path d="M4180 3160 c-6 -11 -8 -20 -6 -20 3 0 10 9 16 20 6 11 8 20 6 20 -3
0 -10 -9 -16 -20z"/>
<path d="M2940 3159 c0 -5 5 -7 10 -4 6 3 10 8 10 11 0 2 -4 4 -10 4 -5 0 -10
-5 -10 -11z"/>
<path d="M1370 3140 c-6 -11 -8 -20 -6 -20 3 0 10 9 16 20 6 11 8 20 6 20 -3
0 -10 -9 -16 -20z"/>
<path d="M4225 3140 c-3 -6 1 -7 9 -4 18 7 21 14 7 14 -6 0 -13 -4 -16 -10z"/>
<path d="M326 3123 c-6 -14 -5 -15 5 -6 7 7 10 15 7 18 -3 3 -9 -2 -12 -12z"/>
<path d="M3033 2780 c0 -30 2 -43 4 -27 2 15 2 39 0 55 -2 15 -4 2 -4 -28z"/>
<path d="M2311 2604 c0 -11 3 -14 6 -6 3 7 2 16 -1 19 -3 4 -6 -2 -5 -13z"/>
<path d="M2270 2472 l5 -47 3 39 c2 21 0 42 -5 47 -4 4 -6 -13 -3 -39z"/>
<path d="M2311 2466 c-1 -30 3 -46 8 -40 5 5 6 27 1 49 l-8 40 -1 -49z"/>
<path d="M2566 2345 c-3 -8 -1 -15 4 -15 6 0 10 7 10 15 0 8 -2 15 -4 15 -2 0
-6 -7 -10 -15z"/>
<path d="M2521 2314 c0 -11 3 -14 6 -6 3 7 2 16 -1 19 -3 4 -6 -2 -5 -13z"/>
<path d="M2555 2290 c-3 -11 -13 -20 -21 -20 -8 0 -15 -3 -15 -7 -1 -5 -3 -17
-4 -28 -2 -11 -4 -24 -5 -30 -2 -5 0 -18 5 -28 7 -17 8 -17 22 3 8 11 19 18
24 15 5 -4 9 20 9 54 0 63 -4 75 -15 41z m-21 -101 c-3 -5 -10 -7 -15 -3 -5 3
-7 10 -3 15 3 5 10 7 15 3 5 -3 7 -10 3 -15z"/>
</g>
</svg>
