<?xml version="1.0" standalone="no"?>
<!DOCTYPE svg PUBLIC "-//W3C//DTD SVG 20010904//EN"
 "http://www.w3.org/TR/2001/REC-SVG-20010904/DTD/svg10.dtd">
<svg version="1.0" xmlns="http://www.w3.org/2000/svg"
 width="1280.000000pt" height="944.000000pt" viewBox="0 0 1280.000000 944.000000"
 preserveAspectRatio="xMidYMid meet">

<g transform="translate(0.000000,944.000000) scale(0.100000,-0.100000)"
fill="#000000" stroke="none">
<path d="M6930 7174 c-30 -47 -94 -145 -143 -219 -93 -141 -108 -182 -138
-357 -12 -75 -14 -78 -40 -78 -25 0 -28 -4 -38 -67 -7 -38 -21 -107 -32 -155
-17 -73 -24 -87 -42 -90 -14 -2 -23 -13 -28 -33 -4 -16 -19 -83 -34 -147 -25
-109 -29 -118 -50 -118 -27 0 -26 3 -56 -142 -21 -106 -22 -108 -49 -108 -26
0 -28 -3 -35 -57 -3 -32 -14 -87 -23 -123 -15 -58 -20 -65 -42 -65 -24 0 -26
-6 -50 -125 -25 -120 -27 -125 -52 -128 -28 -3 -32 -14 -73 -224 -15 -73 -21
-88 -36 -88 -11 0 -19 -7 -19 -16 0 -32 -33 -156 -39 -146 -3 5 -17 12 -31 13
-21 4 -25 -1 -33 -35 -8 -32 -7 -41 7 -51 22 -17 20 -49 -8 -133 -31 -91 -34
-96 -51 -82 -8 6 -24 10 -37 8 -33 -4 -39 -74 -8 -98 21 -15 20 -16 -50 -192
-38 -97 -70 -182 -70 -187 0 -15 -71 -49 -118 -57 -23 -3 -103 -1 -179 6 -127
11 -228 25 -673 96 -85 14 -231 36 -324 50 -93 13 -170 25 -171 27 -5 5 27
213 76 504 20 115 21 137 10 171 -12 35 -10 58 14 193 39 223 49 338 30 359
-13 14 -12 36 10 191 14 96 28 182 31 192 3 10 -5 30 -20 48 -14 17 -26 34
-26 37 -5 89 -21 207 -32 228 -23 49 -43 42 -81 -28 -35 -62 -65 -152 -87
-258 -6 -30 -17 -64 -25 -76 -8 -12 -39 -107 -69 -211 -37 -125 -67 -209 -89
-246 -55 -90 -63 -115 -43 -130 15 -11 13 -26 -28 -182 -75 -283 -128 -566
-124 -660 l3 -80 -35 2 c-68 5 -307 32 -470 53 -91 12 -209 25 -263 28 l-98 7
26 35 c21 27 25 43 22 71 -5 38 -67 222 -94 276 -12 25 -14 48 -9 94 4 40 2
75 -6 95 -14 39 -1 171 33 347 19 98 20 110 6 125 -19 20 -16 43 32 303 17 91
31 179 31 195 0 34 -44 104 -65 104 -20 0 -107 -152 -146 -254 -21 -57 -39
-90 -50 -93 -10 -3 -20 -11 -23 -19 -6 -15 -48 -191 -61 -251 -5 -26 -12 -33
-30 -33 -27 0 -27 -1 -50 -120 -38 -203 -46 -229 -73 -232 -23 -3 -27 -11 -43
-88 -35 -172 -33 -165 -60 -168 -23 -3 -26 -10 -43 -95 -30 -147 -34 -157 -59
-157 -20 0 -25 -11 -50 -119 -15 -65 -30 -141 -34 -169 -5 -45 -3 -51 17 -62
18 -10 21 -17 15 -47 -4 -23 -1 -42 8 -57 22 -34 55 -161 71 -274 8 -56 24
-141 35 -189 12 -49 24 -105 27 -126 4 -27 11 -40 27 -46 28 -11 40 -1 78 67
18 30 45 69 60 87 16 17 54 81 85 141 30 60 66 123 78 139 13 17 28 46 35 66
6 20 30 66 51 102 23 38 47 95 56 134 8 37 17 69 18 70 1 1 40 -5 86 -13 47
-8 180 -19 295 -24 215 -10 293 -17 473 -46 72 -12 105 -22 111 -33 5 -9 11
-104 15 -211 4 -107 12 -215 17 -239 14 -62 49 -141 63 -141 17 0 74 112 151
295 99 235 100 239 119 254 23 19 79 13 466 -52 85 -15 239 -38 343 -52 103
-14 240 -39 305 -56 71 -19 157 -34 217 -38 l100 -6 6 -65 c3 -36 11 -78 18
-94 12 -29 4 -45 -22 -46 -4 0 -12 -11 -18 -24 -13 -28 5 -69 57 -130 36 -42
49 -74 84 -201 12 -44 35 -100 51 -124 16 -25 29 -42 29 -40 0 19 -117 324
-139 364 -35 62 -56 128 -38 122 7 -2 25 -37 40 -78 15 -41 43 -108 61 -149
44 -97 96 -246 96 -272 0 -12 23 -67 51 -122 61 -119 111 -252 169 -443 64
-209 105 -284 174 -320 l31 -16 50 58 c27 32 84 94 126 139 41 44 88 100 104
124 16 24 34 41 41 38 14 -5 27 21 18 36 -3 5 11 37 32 71 53 87 298 410 302
398 4 -13 -17 -46 -109 -167 -111 -146 -182 -254 -167 -253 14 0 202 246 253
330 17 27 37 49 46 49 12 0 18 13 22 47 4 42 11 53 49 83 23 19 72 63 107 98
l65 65 -22 18 c-12 9 -22 20 -22 24 0 4 20 32 45 64 25 31 45 62 45 68 0 35
70 35 106 -1 20 -21 84 -22 84 -2 0 23 11 25 65 15 28 -5 111 -19 185 -30 135
-20 314 -55 769 -149 134 -27 245 -50 246 -50 1 0 5 -60 9 -132 8 -162 35
-485 43 -515 7 -31 47 -30 78 1 34 35 88 145 176 366 43 107 81 195 86 195 39
0 624 -111 708 -133 39 -11 109 -30 158 -43 l87 -24 -6 -30 c-3 -16 -12 -48
-20 -70 -18 -53 -18 -208 1 -313 8 -46 35 -181 60 -300 73 -346 64 -314 92
-310 18 2 28 12 37 38 24 70 63 135 82 139 44 8 91 82 114 180 9 37 23 65 45
87 21 21 37 50 45 83 11 45 15 51 39 51 26 0 26 2 54 147 62 324 66 351 46
365 -17 12 -17 17 0 103 36 177 36 165 0 165 l-32 0 6 75 c3 46 2 77 -5 81 -6
4 -9 51 -9 113 1 58 -1 223 -3 367 -4 220 -8 268 -23 310 -16 43 -22 49 -49
52 -23 2 -33 -2 -37 -15 -3 -10 -35 -83 -72 -163 -52 -112 -77 -183 -109 -310
-23 -91 -51 -186 -63 -210 -11 -25 -37 -89 -58 -143 -20 -53 -52 -118 -71
-145 -50 -69 -67 -111 -60 -150 l5 -35 -47 6 c-26 4 -103 14 -172 22 -105 14
-629 115 -667 130 -18 6 -16 33 11 138 36 137 69 415 61 508 -4 56 1 129 20
271 18 141 25 234 24 334 -2 97 3 166 16 229 19 99 16 200 -10 350 -28 162
-35 185 -55 185 -14 0 -22 -18 -40 -92 -12 -51 -28 -98 -35 -103 -18 -15 -40
-94 -70 -253 -31 -163 -70 -297 -95 -320 -31 -31 -78 -207 -95 -356 -8 -77
-18 -143 -22 -147 -5 -4 -19 -9 -32 -11 -22 -3 -27 -13 -48 -93 -12 -49 -36
-152 -52 -229 -16 -76 -35 -142 -41 -146 -7 -4 -8 -10 -3 -13 6 -4 6 -29 0
-67 -8 -52 -13 -60 -31 -60 -11 1 -95 16 -186 34 -601 122 -783 161 -925 195
-88 21 -184 44 -213 51 -52 12 -53 12 -46 45 3 19 -1 78 -10 132 -27 173 -44
616 -29 801 6 78 7 82 29 82 13 0 24 3 24 6 0 15 -22 44 -34 44 -20 0 -26 33
-26 156 0 68 -4 114 -11 121 -15 15 -14 120 2 228 10 68 10 90 1 93 -8 2 -12
29 -12 78 0 41 -5 83 -12 94 -9 15 -9 46 0 142 7 68 16 135 19 151 4 20 2 27
-11 27 -19 0 -20 25 -2 133 12 73 11 79 -6 88 -22 12 -22 25 -1 156 17 108 17
113 -20 126 -4 1 4 74 19 162 25 148 26 168 16 275 -6 63 -22 162 -35 220 -14
58 -31 141 -40 185 -34 186 -64 199 -147 69z m-4080 -2779 c0 -17 -67 -91 -75
-84 -2 3 4 26 13 52 13 37 22 47 39 47 14 0 23 -6 23 -15z m4209 -1252 c-1
-12 -112 -104 -118 -98 -7 8 91 105 106 105 7 0 13 -3 12 -7z"/>
</g>
</svg>
